<svg width="25" height="25" viewBox="0 0 25 25" fill="none" xmlns="http://www.w3.org/2000/svg">
<path d="M22.7141 10.4599H21.875V10.4167H12.5V14.5833H18.387C17.5282 17.0089 15.2204 18.75 12.5 18.75C9.04848 18.75 6.25004 15.9516 6.25004 12.5C6.25004 9.04843 9.04848 6.25 12.5 6.25C14.0933 6.25 15.5428 6.85104 16.6464 7.83281L19.5928 4.88645C17.7323 3.1526 15.2438 2.08333 12.5 2.08333C6.74744 2.08333 2.08337 6.74739 2.08337 12.5C2.08337 18.2526 6.74744 22.9167 12.5 22.9167C18.2526 22.9167 22.9167 18.2526 22.9167 12.5C22.9167 11.8016 22.8448 11.1198 22.7141 10.4599Z" fill="#FFC107"/>
<path d="M3.28442 7.65156L6.70682 10.1615C7.63286 7.86874 9.87557 6.24999 12.5 6.24999C14.0933 6.24999 15.5428 6.85104 16.6464 7.83281L19.5928 4.88645C17.7323 3.1526 15.2438 2.08333 12.5 2.08333C8.49901 2.08333 5.02922 4.34218 3.28442 7.65156Z" fill="#FF3D00"/>
<path d="M12.5 22.9167C15.1906 22.9167 17.6354 21.887 19.4839 20.2125L16.2599 17.4844C15.2141 18.2766 13.9141 18.75 12.5 18.75C9.79062 18.75 7.4901 17.0224 6.62344 14.6115L3.22656 17.2287C4.95052 20.6021 8.45156 22.9167 12.5 22.9167Z" fill="#4CAF50"/>
<path d="M22.7141 10.4599H21.875V10.4167H12.5V14.5833H18.387C17.9745 15.7484 17.225 16.7531 16.2583 17.4849L16.2599 17.4839L19.4839 20.212C19.2557 20.4193 22.9167 17.7083 22.9167 12.5C22.9167 11.8016 22.8448 11.1198 22.7141 10.4599Z" fill="#1976D2"/>
</svg>
