<svg width="160" height="46" viewBox="0 0 160 46" fill="none" xmlns="http://www.w3.org/2000/svg">
<g clip-path="url(#clip0_20_181)">
<path fill-rule="evenodd" clip-rule="evenodd" d="M50.4409 25.3835L48.5223 22.7586H49.7084C50.027 22.7582 50.32 22.6066 50.4725 22.3633C50.6251 22.12 50.613 21.8236 50.4409 21.5904L39.3393 6.41795C39.181 6.19925 38.9039 6.06727 38.6068 6.06899H11.9735C11.6763 6.06727 11.3993 6.19925 11.2409 6.41795L0.139344 21.5904C-0.0327072 21.8236 -0.044821 22.12 0.107747 22.3633C0.260316 22.6066 0.553279 22.7582 0.871891 22.7586H2.05792L0.139344 25.3835C-0.0327072 25.6167 -0.044821 25.9131 0.107747 26.1564C0.260316 26.3997 0.553279 26.5513 0.871891 26.5517H2.05792L0.139344 29.1766C-0.0327072 29.4098 -0.044821 29.7062 0.107747 29.9495C0.260316 30.1928 0.553279 30.3444 0.871891 30.3448H2.05792L0.139344 32.9697C-0.0327072 33.203 -0.044821 33.4993 0.107747 33.7426C0.260316 33.9859 0.553279 34.1375 0.871891 34.138H2.05792L0.139344 36.7628C-0.0327072 36.9961 -0.044821 37.2924 0.107747 37.5357C0.260316 37.779 0.553279 37.9306 0.871891 37.9311H49.7084C50.027 37.9306 50.32 37.779 50.4725 37.5357C50.6251 37.2924 50.613 36.9961 50.4409 36.7628L48.5223 34.138H49.7084C50.027 34.1375 50.32 33.9859 50.4725 33.7426C50.6251 33.4993 50.613 33.203 50.4409 32.9697L48.5223 30.3448H49.7084C50.027 30.3444 50.32 30.1928 50.4725 29.9495C50.6251 29.7062 50.613 29.4098 50.4409 29.1766L48.5223 26.5517H49.7084C50.027 26.5513 50.32 26.3997 50.4725 26.1564C50.6251 25.9131 50.613 25.6167 50.4409 25.3835Z" fill="#B0D3F0"/>
<path fill-rule="evenodd" clip-rule="evenodd" d="M11.985 11.8072C11.6671 11.8069 11.3745 11.656 11.2215 11.4136C11.0686 11.1711 11.0794 10.8754 11.2498 10.642L12.6731 8.69609C12.8332 8.47723 13.1109 8.34474 13.4091 8.34485H17.4416C17.9232 8.34485 18.3137 8.68449 18.3137 9.10347C18.3137 9.52244 17.9232 9.86209 17.4416 9.86209H13.8879L12.7219 11.4552C12.5618 11.6746 12.2837 11.8074 11.985 11.8072Z" fill="white"/>
<path fill-rule="evenodd" clip-rule="evenodd" d="M49.7084 26.5518H0.871891C0.553279 26.5513 0.260316 26.3997 0.107747 26.1564C-0.044821 25.9131 -0.0327072 25.6168 0.139344 25.3835L2.05792 22.7587H48.5223L50.4409 25.3835C50.613 25.6168 50.6251 25.9131 50.4725 26.1564C50.32 26.3997 50.027 26.5513 49.7084 26.5518Z" fill="#3B97D3"/>
<path fill-rule="evenodd" clip-rule="evenodd" d="M49.7084 30.3449H0.871891C0.553279 30.3444 0.260316 30.1928 0.107747 29.9495C-0.044821 29.7062 -0.0327072 29.4099 0.139344 29.1766L2.05792 26.5518H48.5223L50.4409 29.1766C50.613 29.4099 50.6251 29.7062 50.4725 29.9495C50.32 30.1928 50.027 30.3444 49.7084 30.3449Z" fill="#2980BA"/>
<path fill-rule="evenodd" clip-rule="evenodd" d="M49.7084 34.138H0.871891C0.553279 34.1375 0.260316 33.9859 0.107747 33.7426C-0.044821 33.4993 -0.0327072 33.203 0.139344 32.9697L2.05792 30.3448H48.5223L50.4409 32.9697C50.613 33.203 50.6251 33.4993 50.4725 33.7426C50.32 33.9859 50.027 34.1375 49.7084 34.138Z" fill="#3B97D3"/>
<path fill-rule="evenodd" clip-rule="evenodd" d="M49.7084 37.931H0.871891C0.553279 37.9306 0.260316 37.779 0.107747 37.5357C-0.044821 37.2924 -0.0327072 36.996 0.139344 36.7628L2.05792 34.1379H48.5223L50.4409 36.7628C50.613 36.996 50.6251 37.2924 50.4725 37.5357C50.32 37.779 50.027 37.9306 49.7084 37.931Z" fill="#2980BA"/>
</g>
<path d="M73.8168 21.4929C73.7372 20.6908 73.3958 20.0677 72.7926 19.6236C72.1894 19.1794 71.3707 18.9574 70.3366 18.9574C69.634 18.9574 69.0407 19.0568 68.5568 19.2557C68.0729 19.4479 67.7017 19.7164 67.4432 20.0611C67.1913 20.4058 67.0653 20.7969 67.0653 21.2344C67.0521 21.599 67.1283 21.9171 67.294 22.1889C67.4664 22.4607 67.7017 22.696 68 22.8949C68.2983 23.0871 68.643 23.2562 69.0341 23.402C69.4252 23.5412 69.8428 23.6605 70.2869 23.7599L72.1165 24.1974C73.0047 24.3963 73.8201 24.6615 74.5625 24.9929C75.3049 25.3243 75.9479 25.732 76.4915 26.2159C77.035 26.6998 77.456 27.2699 77.7543 27.9261C78.0592 28.5824 78.215 29.3348 78.2216 30.1832C78.215 31.4295 77.8968 32.5099 77.267 33.4247C76.6439 34.3329 75.7424 35.0388 74.5625 35.5426C73.3892 36.0398 71.974 36.2884 70.3168 36.2884C68.6728 36.2884 67.241 36.0365 66.0213 35.5327C64.8082 35.0289 63.8603 34.2831 63.1776 33.2955C62.5014 32.3011 62.1468 31.0715 62.1136 29.6065H66.2798C66.3262 30.2893 66.5218 30.8594 66.8665 31.3168C67.2178 31.7675 67.6851 32.1089 68.2685 32.3409C68.8584 32.5663 69.5246 32.679 70.267 32.679C70.9962 32.679 71.6293 32.5729 72.1662 32.3608C72.7098 32.1487 73.1307 31.8537 73.429 31.4759C73.7273 31.098 73.8764 30.6638 73.8764 30.1733C73.8764 29.7159 73.7405 29.3314 73.4688 29.0199C73.2036 28.7083 72.8125 28.4432 72.2955 28.2244C71.785 28.0057 71.1586 27.8068 70.4162 27.6278L68.1989 27.071C66.482 26.6534 65.1264 26.0005 64.1321 25.1122C63.1378 24.224 62.6439 23.0275 62.6506 21.5227C62.6439 20.2898 62.9721 19.2126 63.6349 18.2912C64.3045 17.3698 65.2225 16.6506 66.3892 16.1335C67.5559 15.6165 68.8816 15.358 70.3665 15.358C71.8778 15.358 73.197 15.6165 74.3239 16.1335C75.4574 16.6506 76.339 17.3698 76.9688 18.2912C77.5985 19.2126 77.9233 20.2798 77.9432 21.4929H73.8168ZM89.1616 20.7273V23.9091H79.9641V20.7273H89.1616ZM82.0522 17.0682H86.288V31.3068C86.288 31.6979 86.3477 32.0028 86.467 32.2216C86.5863 32.4337 86.752 32.5829 86.9641 32.669C87.1829 32.7552 87.4348 32.7983 87.7198 32.7983C87.9187 32.7983 88.1175 32.7817 88.3164 32.7486C88.5153 32.7088 88.6677 32.679 88.7738 32.6591L89.44 35.8111C89.2279 35.8774 88.9296 35.9536 88.5451 36.0398C88.1606 36.1326 87.6933 36.1889 87.1431 36.2088C86.1223 36.2486 85.2274 36.1127 84.4585 35.8011C83.6961 35.4896 83.1029 35.0057 82.6786 34.3494C82.2544 33.6932 82.0456 32.8646 82.0522 31.8636V17.0682ZM96.2759 36.2884C95.3015 36.2884 94.4331 36.1193 93.6708 35.7812C92.9085 35.4366 92.3053 34.9295 91.8612 34.2599C91.4237 33.5838 91.2049 32.742 91.2049 31.7344C91.2049 30.8859 91.3607 30.1733 91.6722 29.5966C91.9838 29.0199 92.408 28.5559 92.945 28.2045C93.4819 27.8532 94.0917 27.5881 94.7745 27.4091C95.4639 27.2301 96.1864 27.1042 96.9421 27.0312C97.8304 26.9384 98.5463 26.8523 99.0898 26.7727C99.6334 26.6866 100.028 26.5606 100.273 26.3949C100.518 26.2292 100.641 25.9839 100.641 25.6591V25.5994C100.641 24.9697 100.442 24.4825 100.044 24.1378C99.6533 23.7931 99.0965 23.6207 98.3739 23.6207C97.6116 23.6207 97.0051 23.7898 96.5543 24.1278C96.1036 24.4593 95.8053 24.8769 95.6594 25.3807L91.7418 25.0625C91.9407 24.1345 92.3318 23.3324 92.9151 22.6562C93.4985 21.9735 94.2508 21.4498 95.1722 21.0852C96.1003 20.714 97.1741 20.5284 98.3938 20.5284C99.2423 20.5284 100.054 20.6278 100.83 20.8267C101.612 21.0256 102.305 21.3338 102.908 21.7514C103.518 22.169 103.998 22.706 104.35 23.3622C104.701 24.0118 104.877 24.7907 104.877 25.6989V36H100.86V33.8821H100.74C100.495 34.3594 100.167 34.7803 99.756 35.1449C99.3451 35.5028 98.8512 35.7846 98.2745 35.9901C97.6978 36.1889 97.0316 36.2884 96.2759 36.2884ZM97.489 33.3651C98.1121 33.3651 98.6623 33.2424 99.1396 32.9972C99.6168 32.7453 99.9914 32.4072 100.263 31.983C100.535 31.5587 100.671 31.0781 100.671 30.5412V28.9205C100.538 29.0066 100.356 29.0862 100.124 29.1591C99.8986 29.2254 99.6433 29.2884 99.3583 29.348C99.0733 29.401 98.7882 29.4508 98.5032 29.4972C98.2182 29.5369 97.9596 29.5734 97.7276 29.6065C97.2305 29.6795 96.7963 29.7955 96.4251 29.9545C96.0539 30.1136 95.7655 30.3291 95.56 30.6009C95.3545 30.866 95.2518 31.1974 95.2518 31.5952C95.2518 32.1719 95.4606 32.6127 95.8782 32.9176C96.3024 33.2159 96.8394 33.3651 97.489 33.3651ZM115.064 36.2983C113.499 36.2983 112.154 35.9669 111.027 35.304C109.906 34.6345 109.045 33.7064 108.441 32.5199C107.845 31.3333 107.547 29.9678 107.547 28.4233C107.547 26.8589 107.848 25.4867 108.451 24.3068C109.061 23.1203 109.926 22.1955 111.047 21.5327C112.167 20.8632 113.499 20.5284 115.044 20.5284C116.376 20.5284 117.543 20.7704 118.544 21.2543C119.545 21.7382 120.337 22.4176 120.92 23.2926C121.503 24.1676 121.825 25.1951 121.885 26.375H117.887C117.775 25.6127 117.476 24.9995 116.993 24.5355C116.515 24.0649 115.889 23.8295 115.113 23.8295C114.457 23.8295 113.884 24.0085 113.393 24.3665C112.909 24.7178 112.531 25.2315 112.26 25.9077C111.988 26.5838 111.852 27.4025 111.852 28.3636C111.852 29.3381 111.984 30.1667 112.25 30.8494C112.521 31.5322 112.903 32.0526 113.393 32.4105C113.884 32.7685 114.457 32.9474 115.113 32.9474C115.597 32.9474 116.031 32.848 116.416 32.6491C116.807 32.4503 117.128 32.1619 117.38 31.7841C117.639 31.3996 117.808 30.9389 117.887 30.402H121.885C121.818 31.5687 121.5 32.5961 120.93 33.4844C120.367 34.366 119.588 35.0554 118.593 35.5526C117.599 36.0497 116.422 36.2983 115.064 36.2983ZM128.435 31.6051L128.445 26.5241H129.061L133.953 20.7273H138.815L132.243 28.4034H131.239L128.435 31.6051ZM124.597 36V15.6364H128.832V36H124.597ZM134.142 36L129.648 29.348L132.472 26.3551L139.104 36H134.142Z" fill="#4E5D78"/>
<defs>
<clipPath id="clip0_20_181">
<rect width="50.5806" height="44" fill="white"/>
</clipPath>
</defs>
</svg>
